/* XPM */
static char *_6d8cba09729494aabd0e2716eb44764[] = {
/* columns rows colors chars-per-pixel */
"32 32 111 2 ",
"   c #020203",
".  c #090601",
"X  c #0C0904",
"o  c #060709",
"O  c #07090C",
"+  c #0A0B0B",
"@  c #140D04",
"#  c #1A0F01",
"$  c #100D09",
"%  c #171007",
"&  c #1C1203",
"*  c #15110C",
"=  c #19130A",
"-  c #1F180E",
";  c #0C0E11",
":  c #0F1010",
">  c #101010",
",  c #181612",
"<  c #241601",
"1  c #291903",
"2  c #251B0B",
"3  c #2B1E0B",
"4  c #321E02",
"5  c #261E12",
"6  c #281E11",
"7  c #372306",
"8  c #3A2404",
"9  c #33240E",
"0  c #3A270C",
"q  c #342510",
"w  c #412906",
"e  c #4C2E01",
"r  c #432C0B",
"t  c #4E3002",
"y  c #523304",
"u  c #593603",
"i  c #5E3901",
"p  c #52360D",
"a  c #5B3B0C",
"s  c #402D11",
"d  c #583B11",
"f  c #633F09",
"g  c #674005",
"h  c #6D4203",
"j  c #63400B",
"k  c #6B440A",
"l  c #714401",
"z  c #714709",
"x  c #754B0D",
"c  c #7A4E0E",
"v  c #674410",
"b  c #684410",
"n  c #824E00",
"m  c #845105",
"M  c #895302",
"N  c #85530A",
"B  c #8D590D",
"V  c #925700",
"C  c #945903",
"Z  c #8B5A11",
"A  c #98600D",
"S  c #9B6412",
"D  c #A46302",
"F  c #AA6603",
"G  c #AE6901",
"H  c #A5670B",
"J  c #A6690F",
"K  c #AA690A",
"L  c #B26B01",
"P  c #B26E0A",
"I  c #BD7203",
"U  c #B3700D",
"Y  c #BD760A",
"T  c #B67411",
"R  c #B87512",
"E  c #C27503",
"W  c #C47807",
"Q  c #CE7C03",
"!  c #C1770B",
"~  c #C37A0D",
"^  c #CE7F0A",
"/  c #D27E03",
"(  c #C57D12",
")  c #CF810B",
"_  c #D48106",
"`  c #DC8300",
"'  c #D1820B",
"]  c #DF8A0D",
"[  c #D58610",
"{  c #DB8910",
"}  c #E18601",
"|  c #E58A03",
" . c #EC8D01",
".. c #E28C0C",
"X. c #EB8F08",
"o. c #F08F00",
"O. c #EE9006",
"+. c #E9900C",
"@. c #F39202",
"#. c #F99502",
"$. c #FF9B04",
"%. c #F4960A",
"&. c #F6980D",
"*. c #FE9D0A",
"=. c #E28E12",
"-. c #F49B16",
";. c #FB9D13",
":. c #FFA00C",
">. c #FEA114",
",. c #FEA31A",
"<. c None",
/* pixels */
"<.<.<.<.<.<.<.<.<.<.<.<.<.<.<.<.<.<.<.<.<.<.<.<.<.<.<.<.<.<.<.<.",
"<.<.<.<.<.<.<.<.<.<.<.<.<.<.,.,.,.,.<.<.<.<.<.<.<.<.<.<.<.<.<.<.",
"<.<.<.<.<.<.<.<.<.<.,.;.=.( J A A H ~ ..;.>.<.<.<.<.<.<.<.<.<.<.",
"<.<.<.<.<.<.<.<.,.-.R v q , ; ; + O * 3 f P %.>.<.<.<.<.<.<.<.<.",
"<.<.<.<.<.<.<.,.( d , ; O * - * + + + o o $ y ! *.<.<.<.<.<.<.<.",
"<.<.<.<.<.<.-.S 6 ; : q c U P 2 O r K z 3 o   = C %.<.<.<.<.<.<.",
"<.<.<.<.<.-.Z , : 6 Z =.>.;.x + = P :.*.| M & o $ m %.<.<.<.<.<.",
"<.<.<.<.,.S , : s ( :.:.:.~ - O j *.*.*.*.*.W 7   o C *.<.<.<.<.",
"<.<.<.,.( 5 : q [ >.*.*.-.a O 6 ) :.:.*.*.*.$._ 8   # E *.<.<.<.",
"<.<.<.-.d : : q { >.*.>.K * O f ) ) _ _ ) _ _ _ C X   t O.<.<.<.",
"<.<.;.T , : > + c *.>.+.r + + % = % = % @ % % @ % o   . L #.<.<.",
"<.<.-.v O q d + - ~ :.B + + + + + O o o . o o     .     i #.<.<.",
"<.<.=.9 + c [ 6 O d ^ 6 O r K K K K 0 . * m F F F F y   < } <.<.",
"<.<.~ , : U >.N + * 0 + = Y *.*.*.$.Y %   l #.*.$.$.G   X I <.<.",
"<.;.J + - ' *.=.0 + + O k *.$.*.*.*.#.g o $ I $.$.$.Q @   D #.<.",
"<.&.A + 6 ] *.:.J + + 2 ' :.*.*.$.*.$.' &   t o.$.$.` #   V #.<.",
"<.&.A + 2 ] :.*.%.p o 2 _ *.$.$.*.*.$._ <   o D $.$.` #   V @.<.",
"<.%.H + - ' *.*.*.Y % o k *.*.*.$.$.#.g       4 } $.Q @   D @.<.",
"<.+.Y * + P :.:.*.*.z o % I *.$.*.*.I @   4 .   l $.G   . I  .<.",
"<.<.| 3 o a K K K K m $ o 0 H F F F 8   < Q y   < / l   < } <.<.",
"<.<.%.j   + O X + + . o o .   . .       M $.E @   e <   i o.<.<.",
"<.<.O.P $ O + @ @ % % % % % % $ $     8 | $.#.h         L  .<.<.",
"<.<.<.X.y o + C _ _ Q Q Q Q Q Q u   X F $.$.$./ <     e  .<.<.<.",
"<.<.<.| W & o 8 _ $.$.*.$.$.*./ &   t @.$.$.$./ <   # E | <.<.<.",
"<.<.<.<.@.A o   7 W $.$.$.$.#.i   # E $.$.$.E 4   . V o.<.<.<.<.",
"<.<.<.<.<.@.m X   & m } $.$.L .   h $.$.} n #   . n o.<.<.<.<.<.",
"<.<.<.<.<.<.O.C #     1 l D 8   # F G l <     # V  .<.<.<.<.<.<.",
"<.<.<.<.<.<.<. .E t o             @       . t E  .<.<.<.<.<.<.<.",
"<.<.<.<.<.<.<.<.`  .L i < .         . < i L  .` <.<.<.<.<.<.<.<.",
"<.<.<.<.<.<.<.<.<.<.`  .` I D V V D I `  .` <.<.<.<.<.<.<.<.<.<.",
"<.<.<.<.<.<.<.<.<.<.<.<.<.Q ` } } ` Q <.<.<.<.<.<.<.<.<.<.<.<.<.",
"<.<.<.<.<.<.<.<.<.<.<.<.<.<.<.<.<.<.<.<.<.<.<.<.<.<.<.<.<.<.<.<."
};
