/* XPM */
static char *_a19ee821aa7452986486da3aeedbb16[] = {
/* columns rows colors chars-per-pixel */
"64 64 136 2 ",
"   c #020203",
".  c #0A0601",
"X  c #0C0905",
"o  c #050608",
"O  c #07080A",
"+  c #0B0B0B",
"@  c #120C02",
"#  c #180E01",
"$  c #110E0A",
"%  c #171006",
"&  c #1C1204",
"*  c #13110D",
"=  c #1B150B",
"-  c #0D0E10",
";  c #0F1011",
":  c #111111",
">  c #1A1611",
",  c #1D1811",
"<  c #231501",
"1  c #2B1B03",
"2  c #20170B",
"3  c #221A0D",
"4  c #2A1D0B",
"5  c #331F01",
"6  c #221B11",
"7  c #2E210D",
"8  c #342003",
"9  c #3C2401",
"0  c #31220B",
"q  c #3A270C",
"w  c #3E2A0D",
"e  c #3C2B12",
"r  c #442902",
"t  c #4A2D01",
"y  c #442E0C",
"u  c #492E08",
"i  c #4E330B",
"p  c #543301",
"a  c #5B3702",
"s  c #5E3903",
"d  c #52350A",
"f  c #57390D",
"g  c #5D3D0C",
"h  c #432E10",
"j  c #4A3310",
"k  c #503611",
"l  c #573B11",
"z  c #5A3D10",
"x  c #623C04",
"c  c #633F09",
"v  c #674007",
"b  c #6B4205",
"n  c #65410C",
"m  c #6C450C",
"M  c #6F480E",
"N  c #724501",
"B  c #7D4B02",
"V  c #744B0D",
"C  c #7A4D0A",
"Z  c #674410",
"A  c #6E4911",
"S  c #7C5110",
"D  c #814D02",
"F  c #855002",
"G  c #8A5404",
"H  c #83530B",
"J  c #8A570C",
"K  c #8E5A0E",
"L  c #915600",
"P  c #945A05",
"I  c #9C5F03",
"U  c #925D0E",
"Y  c #985F0A",
"T  c #855610",
"R  c #8A5A12",
"E  c #9E6006",
"W  c #9F620A",
"Q  c #996312",
"!  c #A66401",
"~  c #AA6601",
"^  c #AE6902",
"/  c #A0650C",
"(  c #AB6B0C",
")  c #B36C03",
"_  c #B86F02",
"`  c #B36F0B",
"'  c #BA7105",
"]  c #B3700E",
"[  c #BB730A",
"{  c #AD6E11",
"}  c #B77412",
"|  c #B87512",
" . c #C47501",
".. c #C87700",
"X. c #C77A06",
"o. c #CC7B02",
"O. c #C57A0B",
"+. c #CA7D0B",
"@. c #D27E01",
"#. c #C77D10",
"$. c #C97F10",
"%. c #D78102",
"&. c #DC8402",
"*. c #D3840D",
"=. c #D9860D",
"-. c #DE890A",
";. c #DE8B12",
":. c #E18700",
">. c #E48902",
",. c #EB8D01",
"<. c #E38C0C",
"1. c #E98F08",
"2. c #F08F00",
"3. c #EE9005",
"4. c #EC920C",
"5. c #F49302",
"6. c #FA9601",
"7. c #F79806",
"8. c #FF9A03",
"9. c #F2950B",
"0. c #F7980D",
"q. c #FF9D0B",
"w. c #E48F10",
"e. c #F19711",
"r. c #F69A12",
"t. c #FC9E12",
"y. c #F39D1E",
"u. c #FFA00E",
"i. c #FFA113",
"p. c #F7A01F",
"a. c #FDA21B",
"s. c #F39F22",
"d. c #F6A327",
"f. c #FAA322",
"g. c #F7A328",
"h. c None",
/* pixels */
"h.h.h.h.h.h.h.h.h.h.h.h.h.h.h.h.h.h.h.h.h.h.h.h.h.h.h.h.h.h.h.h.h.h.h.h.h.h.h.h.h.h.h.h.h.h.h.h.h.h.h.h.h.h.h.h.h.h.h.h.h.h.h.h.",
"h.h.h.h.h.h.h.h.h.h.h.h.h.h.h.h.h.h.h.h.h.h.h.h.h.h.h.h.h.h.h.h.h.h.h.h.h.h.h.h.h.h.h.h.h.h.h.h.h.h.h.h.h.h.h.h.h.h.h.h.h.h.h.h.",
"h.h.h.h.h.h.h.h.h.h.h.h.h.h.h.h.h.h.h.h.h.h.h.h.h.h.h.h.h.h.h.h.h.h.h.h.h.h.h.h.h.h.h.h.h.h.h.h.h.h.h.h.h.h.h.h.h.h.h.h.h.h.h.h.",
"h.h.h.h.h.h.h.h.h.h.h.h.h.h.h.h.h.h.h.h.h.h.h.h.h.f.f.a.a.i.i.i.i.i.i.i.a.a.f.h.h.h.h.h.h.h.h.h.h.h.h.h.h.h.h.h.h.h.h.h.h.h.h.h.",
"h.h.h.h.h.h.h.h.h.h.h.h.h.h.h.h.h.h.h.h.h.h.f.a.i.i.u.u.t.0.9.9.9.9.0.q.q.q.q.i.i.a.h.h.h.h.h.h.h.h.h.h.h.h.h.h.h.h.h.h.h.h.h.h.",
"h.h.h.h.h.h.h.h.h.h.h.h.h.h.h.h.h.h.h.g.a.i.i.i.r.*.( T n k h w w h i n H ( *.9.8.q.u.i.a.h.h.h.h.h.h.h.h.h.h.h.h.h.h.h.h.h.h.h.",
"h.h.h.h.h.h.h.h.h.h.h.h.h.h.h.h.h.g.a.i.i.r.+.T j 6 - - + + + + + O O O O + = u H X.0.q.q.t.y.h.h.h.h.h.h.h.h.h.h.h.h.h.h.h.h.h.",
"h.h.h.h.h.h.h.h.h.h.h.h.h.h.h.h.f.a.i.e.{ z , - - ; - $ - - - + + - $ + + O O O O % d ^ 4.q.q.t.h.h.h.h.h.h.h.h.h.h.h.h.h.h.h.h.",
"h.h.h.h.h.h.h.h.h.h.h.h.h.h.g.a.i.t.| k > - - : $ - - - - - - + - + + + - O O O O X o + u ) 7.q.q.y.h.h.h.h.h.h.h.h.h.h.h.h.h.h.",
"h.h.h.h.h.h.h.h.h.h.h.h.h.f.i.i.;.A > ; ; - ; : - - + - $ = = - O + + + + O O X + O O X o $ b -.q.q.t.h.h.h.h.h.h.h.h.h.h.h.h.h.",
"h.h.h.h.h.h.h.h.h.h.h.h.f.a.i.| e ; ; : ; ; ; - * 0 g K ] O.y + + - O 0 H s 4 O o o X O . o o 8 ) q.q.t.h.h.h.h.h.h.h.h.h.h.h.h.",
"h.h.h.h.h.h.h.h.h.h.h.a.i.t.Q 6 ; : : : ; - , z { w.t.u.u.] = + + + $ / q.q.<.^ f = o o o o o   % P 6.q.t.h.h.h.h.h.h.h.h.h.h.h.",
"h.h.h.h.h.h.h.h.h.h.f.i.r.R > ; : ; : ; , Z $.0.q.i.q.i.4.y + - + O i 9.q.q.q.8.7.X.c $ o . o o o X H 5.8.0.h.h.h.h.h.h.h.h.h.h.",
"h.h.h.h.h.h.h.h.h.f.i.i.R > : ; ; ; ; h } 0.i.i.t.q.q.u.U - + + + = [ q.q.q.q.q.q.8.7.) q o . o .   X F 6.q.t.h.h.h.h.h.h.h.h.h.",
"h.h.h.h.h.h.h.h.s.i.a.Q > : : : : > A w.i.q.i.q.i.q.u.=.0 + + + O m q.q.q.q.q.q.q.q.q.8.>.b X o   o o . P 8.q.r.h.h.h.h.h.h.h.h.",
"h.h.h.h.h.h.h.h.a.i.| 6 : : : ; > U 0.t.i.q.q.t.q.t.q.V - + + + 4 *.q.q.q.q.8.q.q.q.8.q.q.5.G + o . o   @ ) 8.q.h.h.h.h.h.h.h.h.",
"h.h.h.h.h.h.h.a.i.;.e ; : : ; > Q t.i.q.t.q.i.q.q.u.O., + - + + J q.q.q.q.q.q.q.8.q.q.8.q.8.q.P X o       1 &.8.q.h.h.h.h.h.h.h.",
"h.h.h.h.h.h.s.t.t.A ; ; : : ; S t.u.t.q.q.i.i.q.t.9.l + + O O q 1.q.q.q.q.8.q.8.q.q.8.8.8.q.8.7.G . o .     x 6.8.e.h.h.h.h.h.h.",
"h.h.h.h.h.h.t.i.} > : : : : ; z 0.q.i.i.t.u.q.t.u.( * $ + + * ( u.u.u.8.u.8.u.8.q.8.8.u.8.8.q.8.7.b         X ^ 8.8.h.h.h.h.h.h.",
"h.h.h.h.h.y.i.e.k ; : : ; : ; > ( i.q.t.q.q.i.q.<.w - + + - 0 ` [ ' [ [ [ [ [ ' [ [ ' [ ' ' ' ' ' E %         r 2.8.9.h.h.h.h.h.",
"h.h.h.h.h.t.i.{ > ; ; - ; * * - h w.q.i.q.t.u.q.J - + + + + + * $ * X $ X $ X + X X + X X X X . X X o         . ~ 8.7.h.h.h.h.h.",
"h.h.h.h.h.i.r.l ; * ; - ; - - - * K i.q.i.q.u.*.4 + + + + + + + + O + O O O X O O X O O o   o o   .       .     t 5.8.h.h.h.h.h.",
"h.h.h.h.r.i.*.> ; - ; 6 j - - $ - 7 *.u.q.q.t.m O - - $ + + O + + O X O O X O O . o . o o o . o   o             @  .8.5.h.h.h.h.",
"h.h.h.h.t.i.T - : ; - g *.7 - - - - A q.t.u.[ = + + + O O O o o O o o O O O . O o o o                             B 8.q.h.h.h.h.",
"h.h.h.h.i.9.j - - - * ( u.U - - - - = [ u.9.i O - + O 0 n n c c v g c x 4 o X o O @ d x s x s s s x s x t         9 2.6.h.h.h.h.",
"h.h.h.r.i.*.6 - - - 7 w.i.4.y - + + - f 0./ $ - + + * ( 8.q.q.q.q.8.q.q.( $ o o o X E 8.8.8.8.q.8.8.6.8.&.<       @ @.8.3.h.h.h.",
"h.h.h.r.i.( $ - - - g t.q.u.{ * + + - + J q + + + O g 7.q.q.q.q.q.q.q.8.5.f . o o   0 >.q.8.8.8.8.6.8.8.6.p         ! 8.6.h.h.h.",
"h.h.h.t.q.T - - + - K u.i.q.0.g - - + + * + + + O 2 +.q.q.q.q.q.q.8.8.q.8...= o o . o B 8.8.8.q.8.8.8.8.8.G         B 8.6.h.h.h.",
"h.h.h.t.q.Z + - - * { q.q.q.u.+.3 + + + + + + + + C q.q.q.q.q.8.8.q.q.q.8.8.C o   o   & o.q.8.8.8.q.6.8.8.)         s 6.6.h.h.h.",
"h.h.h.q.0.k + - - = *.u.q.t.t.q.C + + + + + + O 0 -.q.q.q.8.q.q.q.q.q.8.u.8.-.1 o o o   s 6.8.8.8.6.6.8.8.o.X       r 6.8.h.h.h.",
"h.h.h.t.9.y + - + 3 =.q.q.q.q.q.-.0 O + + + + + E u.8.8.q.q.8.8.q.8.q.8.q.8.8.Y X o o   X ) 8.8.8.8.8.8.8.@.@       9 5.8.h.h.h.",
"h.h.h.q.9.e + - + 4 -.u.q.t.q.u.q.Q + + + + X y 4.q.q.q.q.8.q.q.8.q.8.q.8.q.8.2.9   . o   r ,.8.8.6.8.8.8.&.&       5 2.6.h.h.h.",
"h.h.h.q.9.w + + + 4 <.q.q.q.q.q.q.4.u O O + X y ,.q.q.8.q.8.q.q.q.8.8.8.q.6.q.2.r   o o   . P 8.8.8.8.8.8.&.&       5 2.6.h.h.h.",
"h.h.h.q.9.y + + + 3 =.u.q.q.q.q.q.q.` * O O O + Y q.q.q.q.q.8.8.8.q.q.6.8.q.8.P o           1 &.8.8.8.8.8.%.#       9 2.6.h.h.h.",
"h.h.h.q.0.i + + + * +.q.q.q.q.q.q.q.7.n O + O O 5 -.8.q.6.q.8.q.q.q.8.q.8.8.-.1   o   o       N 8.8.6.6.8....       r 6.6.h.h.h.",
"h.h.h.q.t.n O + + + ] q.q.q.q.q.q.q.q.+.3 X O X o C q.q.8.q.q.8.8.6.q.8.q.q.B   .             @  .8.6.8.8.^         a 6.6.h.h.h.",
"h.h.h.0.q.H O + + O K q.q.8.q.q.8.q.8.q.C X O O o = X.8.q.8.q.q.q.8.q.8.8.X.# o       .         p 5.8.6.8.G         B 8.6.h.h.h.",
"h.h.h.9.u.( + + + O g 8.q.q.q.q.q.q.q.q.<.0 O X X o f 0.8.q.8.q.6.8.8.8.5.a     o   8 D .       . ~ 8.6.6.p         ! 8.2.h.h.h.",
"h.h.h.<.8.*.= X + O 4 <.q.q.q.q.q.q.q.8.q.E X O o X @ ^ q.8.8.8.q.6.q.q.^ X   o   . I 5.r         9 >.8.:.<       @ @.8.>.h.h.h.",
"h.h.h.h.q.9.y O + O X i v g v x c x c c v p * . o o o 4 x x g s x x s s 1         r 5.8._ @         G 8.!         9 2.8.h.h.h.h.",
"h.h.h.h.7.q.H O X O O O o o o o o o o o o o o . o O . o   o               o     X _ 8.8.6.x         < o.p         B 8.6.h.h.h.h.",
"h.h.h.h.1.q.+.% O X O + X O O X O O O O . o o o o . o   O   O   o       .       x 6.8.8.8.@.<         9 @       @  .8.>.h.h.h.h.",
"h.h.h.h.h.q.9.d O O . O O O X O o O O X O o o . O O o o   O   o     o         < @.8.8.8.6.8.F                   t 5.6.h.h.h.h.h.",
"h.h.h.h.h.3.q.^ X O O O O . X + X X X X X X X X X X . X . X . X . . o         F 8.8.8.6.6.8.>.8               . ! 8.5.h.h.h.h.h.",
"h.h.h.h.h.%.q.4.u O O O O & E ' ' ' ' ' ' [ ' ' ' ' ' [ ' ' ' _ ^ 1         8 >.8.8.6.8.6.8.8.!               r ,.8.@.h.h.h.h.h.",
"h.h.h.h.h.h.9.8.) $ O . O O b 7.8.u.8.8.8.8.8.8.8.8.8.8.8.8.8.8.! X       . ! 8.8.8.8.6.8.6.8.5.p           . ~ 8.5.h.h.h.h.h.h.",
"h.h.h.h.h.h.@.q.7.n o o O . X G 8.q.q.8.8.q.q.8.q.8.8.8.8.8.8.>.8         p 5.8.6.8.6.8.8.6.8.6.N           x 6.6.@.h.h.h.h.h.h.",
"h.h.h.h.h.h.h.1.8.&.1 o . o O X K 8.q.8.8.8.8.8.8.8.8.8.8.8.8.D o       @ ' 8.6.8.6.8.6.6.8.6.L .         1 %.8.,.h.h.h.h.h.h.h.",
"h.h.h.h.h.h.h.h.5.q.) % o o .   @ G 5.q.q.8.8.8.8.8.8.8.8.8.@.<         N 6.8.6.6.8.6.8.6.6.F .         @ ) 8.6.h.h.h.h.h.h.h.h.",
"h.h.h.h.h.h.h.h.o.q.q.P . o   o   o b >.8.8.8.8.q.8.8.8.8.8.x         < %.8.6.8.8.6.8.6.>.x             L 6.6.o.h.h.h.h.h.h.h.h.",
"h.h.h.h.h.h.h.h.h.-.8.5.B X o .   o   q ) 7.8.8.8.8.6.8.8.) X         G 8.6.8.6.6.8.6.) 9             D 6.6.:.h.h.h.h.h.h.h.h.h.",
"h.h.h.h.h.h.h.h.h.h.>.8.5.D X   .       @ s ..5.8.8.8.8.5.r         r >.8.8.6.8.6. .a .           . D 6.8.>.h.h.h.h.h.h.h.h.h.h.",
"h.h.h.h.h.h.h.h.h.h.h.>.q.6.P @             @ p ! :.6.8.I .       . ~ 8.6.6.:.~ p @             @ L 6.8.>.h.h.h.h.h.h.h.h.h.h.h.",
"h.h.h.h.h.h.h.h.h.h.h.h.>.q.8.) 5     .         . < p B <         9  .) F p <                 1 ) 6.6.>.h.h.h.h.h.h.h.h.h.h.h.h.",
"h.h.h.h.h.h.h.h.h.h.h.h.h.&.7.8.&.x X                             . X                     . x &.8.6.@.h.h.h.h.h.h.h.h.h.h.h.h.h.",
"h.h.h.h.h.h.h.h.h.h.h.h.h.h. .5.8.5.) r .                                               r ) 6.8.5. .h.h.h.h.h.h.h.h.h.h.h.h.h.h.",
"h.h.h.h.h.h.h.h.h.h.h.h.h.h.h.h.:.7.8.5.~ t @                                     @ t ~ 2.8.6.:.h.h.h.h.h.h.h.h.h.h.h.h.h.h.h.h.",
"h.h.h.h.h.h.h.h.h.h.h.h.h.h.h.h.h. .,.8.8.5. .D 9 @                         @ 9 B ..5.8.6.>. .h.h.h.h.h.h.h.h.h.h.h.h.h.h.h.h.h.",
"h.h.h.h.h.h.h.h.h.h.h.h.h.h.h.h.h.h.h. .,.6.8.8.5.@.~ B a r 9 5 5 9 r s B ~ @.2.8.8.6.>. .h.h.h.h.h.h.h.h.h.h.h.h.h.h.h.h.h.h.h.",
"h.h.h.h.h.h.h.h.h.h.h.h.h.h.h.h.h.h.h.h.h.~ %.,.6.6.8.8.6.5.5.2.,.5.6.6.8.8.8.6.2.%.^ h.h.h.h.h.h.h.h.h.h.h.h.h.h.h.h.h.h.h.h.h.",
"h.h.h.h.h.h.h.h.h.h.h.h.h.h.h.h.h.h.h.h.h.h.h.h.~ ..&.>.2.5.6.6.6.6.5.2.>.&...~ h.h.h.h.h.h.h.h.h.h.h.h.h.h.h.h.h.h.h.h.h.h.h.h.",
"h.h.h.h.h.h.h.h.h.h.h.h.h.h.h.h.h.h.h.h.h.h.h.h.h.h.h.h.h.h.h.h.h.h.h.h.h.h.h.h.h.h.h.h.h.h.h.h.h.h.h.h.h.h.h.h.h.h.h.h.h.h.h.h.",
"h.h.h.h.h.h.h.h.h.h.h.h.h.h.h.h.h.h.h.h.h.h.h.h.h.h.h.h.h.h.h.h.h.h.h.h.h.h.h.h.h.h.h.h.h.h.h.h.h.h.h.h.h.h.h.h.h.h.h.h.h.h.h.h.",
"h.h.h.h.h.h.h.h.h.h.h.h.h.h.h.h.h.h.h.h.h.h.h.h.h.h.h.h.h.h.h.h.h.h.h.h.h.h.h.h.h.h.h.h.h.h.h.h.h.h.h.h.h.h.h.h.h.h.h.h.h.h.h.h."
};
