/* XPM */
static char *_52156706fcb45c6d467fc29c1e019fe[] = {
/* columns rows colors chars-per-pixel */
"16 16 151 2 ",
"   c #0F0A04",
".  c #120B02",
"X  c #150D01",
"o  c #150E04",
"O  c #180E00",
"+  c #190F00",
"@  c #1C1100",
"#  c #1F1303",
"$  c #1B1204",
"%  c #1D1406",
"&  c #171108",
"*  c #15110B",
"=  c #1F1608",
"-  c #1C150B",
";  c #1C160C",
":  c #221400",
">  c #231603",
",  c #251702",
"<  c #221605",
"1  c #271905",
"2  c #241807",
"3  c #281802",
"4  c #2A1B05",
"5  c #2C1D07",
"6  c #261A0A",
"7  c #261B0C",
"8  c #251C0F",
"9  c #2A1C08",
"0  c #2B1E0A",
"q  c #2B1E0C",
"w  c #301D00",
"e  c #331F01",
"r  c #261D11",
"t  c #291F10",
"y  c #322004",
"u  c #342106",
"i  c #382100",
"p  c #3B2505",
"a  c #3B2606",
"s  c #30220D",
"d  c #39270D",
"f  c #3D2808",
"g  c #3C290D",
"h  c #302310",
"j  c #432902",
"k  c #422803",
"l  c #472B02",
"z  c #4A2C00",
"x  c #4E2F00",
"c  c #4F2F00",
"v  c #4A2E04",
"b  c #492F07",
"n  c #502F00",
"m  c #4E3004",
"M  c #4F3206",
"N  c #49300A",
"B  c #4D320A",
"V  c #4F330B",
"C  c #48300C",
"Z  c #503000",
"A  c #513000",
"S  c #523203",
"D  c #533303",
"F  c #543507",
"G  c #553608",
"H  c #57390C",
"J  c #5A3B0D",
"K  c #583A0E",
"L  c #583B0F",
"P  c #593B0F",
"I  c #5B3C0F",
"U  c #463112",
"Y  c #553A11",
"T  c #5C3E12",
"R  c #683E00",
"E  c #6A3F00",
"W  c #6B4001",
"Q  c #734601",
"!  c #744600",
"~  c #7D4B02",
"^  c #70470A",
"/  c #71480C",
"(  c #724A0F",
")  c #794E0C",
"_  c #7B4F0D",
"`  c #734B11",
"'  c #845002",
"]  c #8D5401",
"[  c #8E5501",
"{  c #82530D",
"}  c #89560B",
"|  c #9B5C00",
" . c #9C5D01",
".. c #935D0E",
"X. c #955F0E",
"o. c #A06000",
"O. c #A56302",
"+. c #A46509",
"@. c #A7690C",
"#. c #B56C00",
"$. c #B66D00",
"%. c #B56D03",
"&. c #B56F04",
"*. c #B86F05",
"=. c #BE7304",
"-. c #BF7505",
";. c #BF7506",
":. c #B7720A",
">. c #BF7609",
",. c #A96C12",
"<. c #AA6D14",
"1. c #C57703",
"2. c #C07405",
"3. c #C27606",
"4. c #C37706",
"5. c #C27607",
"6. c #C47705",
"7. c #CB7900",
"8. c #CE7D02",
"9. c #CD7B04",
"0. c #C17609",
"q. c #C0770A",
"w. c #C27809",
"e. c #C1780A",
"r. c #C47809",
"t. c #C57A0A",
"y. c #C67A0A",
"u. c #CD7E08",
"i. c #D47F00",
"p. c #C57F16",
"a. c #CE810F",
"s. c #DE8501",
"d. c #DA8405",
"f. c #DC8505",
"g. c #DC8607",
"h. c #D0820D",
"j. c #DB8609",
"k. c #D78710",
"l. c #E08B0E",
"z. c #F09101",
"x. c #FC9803",
"c. c #FF9C01",
"v. c #FF9F02",
"b. c #FF9E06",
"n. c #F1950D",
"m. c #FC9B0A",
"M. c #FF9F08",
"N. c #FF9F09",
"B. c #FFA20B",
"V. c #FFA10E",
"C. c None",
/* pixels */
"C.C.C.C.C.C.C.C.C.C.C.C.C.C.C.C.",
"C.C.C.C.C.<.` I J ( @.C.C.C.C.C.",
"C.C.C.p.T h K d - B 9 F e.C.C.C.",
"C.C.p.U Y a.l.g } m.u.M p 5.C.C.",
"C.C.T r k.V.{ q q.j.f.2.y D C.C.",
"C.,.q r X.a.7 - q = 2 9 $ . O.C.",
"C.( K ..s C V t.4.b a 5.1.j W C.",
"C.K _ n.C * e.B.b.5.< &.v.Q n C.",
"C.H ) B.:.7 >.b.b.-.  k z.Q c C.",
"C.^ N t.q.f v 6.6.v k 3 ] c E C.",
"C.+.& = 5 2 = 2 o # 8.] O $ o.C.",
"C.C.F u 5.f.d.=.> ~ v.i.O A C.C.",
"C.C.*.a M 9.x.' e s.7.z i $.C.C.",
"C.C.C.$.S , j O w c > A $.C.C.C.",
"C.C.C.C.C.| E A n E | C.C.C.C.C.",
"C.C.C.C.C.C.C.C.C.C.C.C.C.C.C.C."
};
